# Blender v3.2.1 OBJ File: ''
# www.blender.org
mtllib model.mtl
o Cube
v 0.007274 0.245485 -1.749715
v 0.007274 -0.187164 -1.698691
v 0.007274 0.273969 -0.185300
v 0.007274 0.079334 -0.227261
v -0.072974 0.245485 -1.749715
v -0.072974 -0.187164 -1.698691
v -0.072974 0.273969 -0.185300
v -0.072974 0.079334 -0.227261
v -0.072974 0.079334 -0.848754
v 0.007274 0.273969 -0.848754
v -0.072974 0.273969 -0.848754
v 0.007274 0.079334 -0.848754
v -0.072974 0.121369 1.141837
v -0.072974 0.244716 1.141837
v 0.007274 0.244716 1.141837
v 0.007274 0.121369 1.141837
v -0.072974 0.040171 -0.640448
v 0.007274 0.040171 -0.640448
v -0.072974 0.040171 -0.499816
v 0.007274 0.040171 -0.499816
v -0.072974 -0.472735 -0.410300
v -0.072974 -0.411193 -0.162921
v 0.007274 -0.411193 -0.162921
v 0.007274 -0.353106 -0.822109
v 0.007274 -0.307690 -0.985000
v -0.072974 -0.307690 -0.985000
v -0.072974 -0.353106 -0.822109
v 0.007274 -0.472735 -0.410300
vt 0.625000 0.625000
vt 0.875000 0.625000
vt 0.875000 0.750000
vt 0.625000 0.750000
vt 0.625000 0.000000
vt 0.375000 0.000000
vt 0.375000 0.000000
vt 0.625000 0.000000
vt 0.375000 0.125000
vt 0.625000 0.125000
vt 0.625000 0.250000
vt 0.375000 0.250000
vt 0.375000 0.687500
vt 0.125000 0.687500
vt 0.125000 0.687500
vt 0.375000 0.687500
vt 0.375000 0.625000
vt 0.375000 0.750000
vt 0.375000 0.718750
vt 0.625000 0.500000
vt 0.375000 0.500000
vt 0.125000 0.500000
vt 0.125000 0.625000
vt 0.375000 0.062500
vt 0.375000 0.031250
vt 0.875000 0.500000
vt 0.375000 0.750000
vt 0.625000 0.750000
vt 0.625000 1.000000
vt 0.375000 1.000000
vt 0.125000 0.750000
vt 0.125000 0.750000
vt 0.875000 0.750000
vt 0.375000 0.750000
vt 0.375000 0.718750
vt 0.125000 0.718750
vt 0.125000 0.718750
vt 0.125000 0.750000
vt 0.125000 0.625000
vt 0.375000 0.625000
vt 0.375000 0.125000
vt 0.375000 0.062500
vt 0.375000 0.031250
vt 0.375000 0.000000
vn 0.0000 1.0000 0.0000
vn -1.0000 0.0000 0.0000
vn 0.0000 -0.4193 0.9078
vn 1.0000 -0.0000 0.0000
vn 0.0000 -0.1171 -0.9931
vn 0.0000 -0.9542 0.2992
vn 0.0000 0.9995 -0.0316
vn 0.0000 0.0000 1.0000
vn 0.0000 -0.9995 0.0307
vn 0.0000 0.9998 0.0220
vn 0.0000 -1.0000 0.0000
vn 0.0000 -0.9704 0.2414
vn 0.0000 -0.9633 -0.2686
vn 0.0000 0.1301 0.9915
vn 0.0000 0.3321 -0.9433
vn 0.0000 -0.1719 -0.9851
usemtl Material
s off
f 10/1/1 11/2/1 7/3/1 3/4/1
f 7/5/2 8/6/2 13/7/2 14/8/2
f 9/9/2 11/10/2 5/11/2 6/12/2
f 18/13/3 17/14/3 27/15/3 24/16/3
f 12/17/4 10/1/4 3/4/4 4/18/4 20/19/4 18/13/4
f 6/12/5 5/11/5 1/20/5 2/21/5
f 2/21/4 1/20/4 10/1/4 12/17/4
f 6/22/6 2/21/6 12/17/6 9/23/6
f 8/6/2 7/5/2 11/10/2 9/9/2 17/24/2 19/25/2
f 1/20/7 5/26/7 11/2/7 10/1/7
f 16/27/8 15/28/8 14/29/8 13/30/8
f 8/31/9 4/18/9 16/27/9 13/32/9
f 3/4/10 7/3/10 14/33/10 15/28/10
f 4/18/4 3/4/4 15/28/4 16/27/4
f 20/19/4 4/18/4 23/34/4 28/35/4
f 17/14/11 18/13/11 20/19/11 19/36/11
f 21/37/12 28/35/12 23/34/12 22/38/12
f 26/39/13 25/40/13 24/16/13 27/15/13
f 4/18/14 8/31/14 22/38/14 23/34/14
f 17/24/2 9/9/2 26/41/2 27/42/2
f 9/23/15 12/17/15 25/40/15 26/39/15
f 12/17/4 18/13/4 24/16/4 25/40/4
f 19/36/16 20/19/16 28/35/16 21/37/16
f 8/6/2 19/25/2 21/43/2 22/44/2
