<svg xmlns="http://www.w3.org/2000/svg"  viewBox="0 0 64 64" width="64px" height="64px"><path fill="#58b5e8" d="M13,7h38c3.314,0,6,2.686,6,6v38c0,3.314-2.686,6-6,6H13c-3.314,0-6-2.686-6-6V13	C7,9.686,9.686,7,13,7z"/><path fill="#65c5ef" d="M11,7h42c2.209,0,4,1.791,4,4l0,0c0,1.657-1.343,3-3,3H10c-1.657,0-3-1.343-3-3l0,0	C7,8.791,8.791,7,11,7z"/><path fill="#8d6c9f" d="M51,6H13c-3.866,0-7,3.134-7,7v38c0,3.866,3.134,7,7,7h38c3.866,0,7-3.134,7-7V13	C58,9.134,54.866,6,51,6z M56,51c0,2.761-2.239,5-5,5H13c-2.761,0-5-2.239-5-5V13c0-2.761,2.239-5,5-5h38c2.761,0,5,2.239,5,5V51z"/><path fill="#8d6c9f" d="M17,16c0.552,0,1-0.448,1-1v-2c0-0.552-0.448-1-1-1s-1,0.448-1,1v2C16,15.552,16.448,16,17,16z M12,12c-0.552,0-1,0.448-1,1v2c0,0.552,0.448,1,1,1s1-0.448,1-1v-2C13,12.448,12.552,12,12,12z M32,16c0.552,0,1-0.448,1-1v-2	c0-0.552-0.448-1-1-1s-1,0.448-1,1v2C31,15.552,31.448,16,32,16z M37,16c0.552,0,1-0.448,1-1v-2c0-0.552-0.448-1-1-1s-1,0.448-1,1v2	C36,15.552,36.448,16,37,16z M42,16c0.552,0,1-0.448,1-1v-2c0-0.552-0.448-1-1-1s-1,0.448-1,1v2C41,15.552,41.448,16,42,16z M47,16	c0.552,0,1-0.448,1-1v-2c0-0.552-0.448-1-1-1s-1,0.448-1,1v2C46,15.552,46.448,16,47,16z M52,12c-0.552,0-1,0.448-1,1v2	c0,0.552,0.448,1,1,1s1-0.448,1-1v-2C53,12.448,52.552,12,52,12z M22,16c0.552,0,1-0.448,1-1v-2c0-0.552-0.448-1-1-1s-1,0.448-1,1v2	C21,15.552,21.448,16,22,16z M27,16c0.552,0,1-0.448,1-1v-2c0-0.552-0.448-1-1-1s-1,0.448-1,1v2C26,15.552,26.448,16,27,16z"/><path fill="#fff8ee" d="M27.149,36.414c1.7-1.052,2.861-3.017,2.861-5.296c0-3.379-2.52-6.118-5.629-6.118h-7.579h-3.602H12 v25h1.201h3.602h7.725c3.691,0,6.683-3.252,6.683-7.264C31.211,39.831,29.515,37.372,27.149,36.414z M17,29h5.592 C23.921,29,25,30.063,25,31.373v0.254C25,32.937,23.922,34,22.592,34H17V29z M17,39h5.592C23.921,39,25,40.275,25,41.848v0.304 C25,43.725,23.922,45,22.592,45H17V39z"/><path fill="#8d6c9f" d="M24.527,51H12c-0.553,0-1-0.448-1-1V25c0-0.552,0.447-1,1-1h12.381c3.655,0,6.629,3.193,6.629,7.118 c0,1.955-0.77,3.811-2.076,5.139c2.007,1.415,3.277,3.85,3.277,6.479C32.211,47.292,28.764,51,24.527,51z M13,49h11.527 c3.134,0,5.684-2.81,5.684-6.264c0-2.395-1.382-4.563-3.438-5.395c-0.35-0.141-0.59-0.467-0.621-0.842 c-0.032-0.375,0.149-0.737,0.47-0.935c1.473-0.911,2.388-2.614,2.388-4.445c0-2.822-2.076-5.118-4.629-5.118H13V49z M22.592,46H17 c-0.553,0-1-0.448-1-1v-6c0-0.552,0.447-1,1-1h5.592C24.471,38,26,39.726,26,41.848v0.305C26,44.274,24.471,46,22.592,46z M18,44 h4.592C23.355,44,24,43.154,24,42.152v-0.305C24,40.846,23.355,40,22.592,40H18V44z M22.592,35H17c-0.553,0-1-0.448-1-1v-5 c0-0.552,0.447-1,1-1h5.592C24.471,28,26,29.513,26,31.373v0.254C26,33.487,24.471,35,22.592,35z M18,33h4.592 C23.368,33,24,32.384,24,31.627v-0.254C24,30.616,23.368,30,22.592,30H18V33z"/><path fill="#fff8ee" d="M47,45.722c-1,1.056-1.794,1.478-3.348,1.478h-0.304c-1.928,0-3.491-1.63-3.491-3.642V43h7.286 h4.828C51.984,42.788,52,41.714,52,41.5c0-5.246-3.806-9.5-8.5-9.5S35,36.254,35,41.5s3.806,9.5,8.5,9.5c3.5,0,5.5-1.056,7.5-4.222 L47,45.722z M40,39.257c0-1.676,1.501-3.035,3.354-3.035h0.292c1.853,0,3.354,1.359,3.354,3.035v0.132h-7V39.257z"/><path fill="#8d6c9f" d="M43.5,52c-5.238,0-9.5-4.71-9.5-10.5S38.262,31,43.5,31S53,35.71,53,41.5 c0,0.224-0.018,1.344-0.031,1.564C52.935,43.591,52.498,44,51.971,44H40.893c0.198,1.248,1.225,2.201,2.456,2.201h0.303 c1.191,0,1.756-0.25,2.623-1.166c0.252-0.266,0.63-0.374,0.98-0.279l4,1.056c0.309,0.081,0.56,0.304,0.676,0.601 c0.116,0.297,0.085,0.631-0.085,0.9C49.687,50.729,47.425,52,43.5,52z M43.5,33c-4.136,0-7.5,3.813-7.5,8.5s3.364,8.5,7.5,8.5 c2.724,0,4.346-0.686,5.861-2.62l-2.063-0.545c-1.08,0.999-2.094,1.366-3.646,1.366h-0.303c-2.477,0-4.491-2.083-4.491-4.642V43 c0-0.552,0.447-1,1-1h11.138C50.998,41.775,51,41.578,51,41.5C51,36.813,47.636,33,43.5,33z M47,40.389h-7c-0.553,0-1-0.448-1-1 v-0.131c0-2.225,1.953-4.035,4.354-4.035h0.291c2.401,0,4.354,1.81,4.354,4.035v0.131C48,39.941,47.553,40.389,47,40.389z M41.226,38.389h4.549c-0.378-0.689-1.189-1.167-2.129-1.167h-0.291C42.415,37.222,41.604,37.7,41.226,38.389z"/><g><rect width="11" height="4" x="38" y="25" fill="#fff8ee"/><path fill="#8d6c9f" d="M49,30H38c-0.553,0-1-0.448-1-1v-4c0-0.552,0.447-1,1-1h11c0.553,0,1,0.448,1,1v4 C50,29.552,49.553,30,49,30z M39,28h9v-2h-9V28z"/></g></svg>