<svg xmlns="http://www.w3.org/2000/svg"  viewBox="0 0 64 64" width="64px" height="64px"><path fill="#7bbeeb" d="M32 4A28 28 0 1 0 32 60A28 28 0 1 0 32 4Z"/><path fill="#8d6c9f" d="M32,61C16.01,61,3,47.991,3,32S16.01,3,32,3s29,13.009,29,29S47.99,61,32,61z M32,5 C17.112,5,5,17.112,5,32s12.112,27,27,27s27-12.112,27-27S46.888,5,32,5z"/><path fill="#8d6c9f" d="M9.979 39.605c-.431 0-.828-.28-.958-.714-.158-.529.142-1.086.671-1.245l1.916-.574c.531-.159 1.087.142 1.245.671.158.529-.142 1.086-.671 1.245l-1.916.574C10.17 39.591 10.073 39.605 9.979 39.605zM12.251 44.78c-.341 0-.672-.174-.859-.487-.283-.474-.129-1.088.346-1.372l1.717-1.026c.472-.284 1.087-.129 1.371.345.283.474.129 1.088-.346 1.372l-1.717 1.026C12.603 44.735 12.426 44.78 12.251 44.78zM15.718 49.245c-.257 0-.513-.098-.708-.294-.39-.391-.39-1.024.002-1.414l1.416-1.413c.392-.391 1.024-.389 1.414.002s.39 1.024-.002 1.414l-1.416 1.413C16.229 49.147 15.974 49.245 15.718 49.245zM20.173 52.722c-.176 0-.353-.046-.514-.143-.474-.284-.627-.898-.343-1.372l1.03-1.714c.284-.474.898-.627 1.372-.342.474.284.627.898.343 1.372l-1.03 1.714C20.844 52.549 20.513 52.722 20.173 52.722zM25.345 55.007c-.096 0-.192-.014-.289-.043-.528-.16-.828-.718-.668-1.247l.578-1.915c.159-.528.716-.826 1.246-.668.528.16.828.718.668 1.247l-.578 1.915C26.172 54.728 25.774 55.007 25.345 55.007z"/><g><path fill="#8d6c9f" d="M32,55c-0.553,0-1-0.448-1-1s0.447-1,1-1c11.579,0,21-9.42,21-21s-9.421-21-21-21s-21,9.42-21,21 c0,0.552-0.447,1-1,1s-1-0.448-1-1C9,19.318,19.317,9,32,9s23,10.318,23,23S44.683,55,32,55z"/></g><g><path fill="#fff8ee" d="M28.291,45.47c0.001-2.267,0-11.007,0-13.252c0-0.293-0.237-0.527-0.53-0.527h-2.12 c-0.293,0-0.53-0.237-0.53-0.53v-3.709c0-0.293,0.237-0.53,0.53-0.53h2.112c0.295,0,0.534-0.237,0.53-0.533 c-0.011-0.902-0.028-2.729,0.007-3.707c0-3.179,2.65-5.299,6.359-5.299h3.709c0.293,0,0.53,0.237,0.53,0.53v4.245 c0,0.293-0.238,0.53-0.531,0.53l-2.119-0.003c-1.06,0-2.12,0.528-2.12,2.118v1.59c0,0.293,0.237,0.53,0.53,0.53h3.647 c0.316,0,0.562,0.275,0.527,0.588l-0.412,3.709c-0.03,0.268-0.257,0.471-0.527,0.471H34.65c-0.293,0-0.53,0.234-0.53,0.526 c0,2.245,0.002,11.009,0.001,13.255c0,0.293-0.237,0.526-0.53,0.526h-4.769C28.528,46,28.291,45.763,28.291,45.47z"/></g><g><path fill="#8d6c9f" d="M33.591,47h-4.77c-0.844,0-1.53-0.686-1.53-1.53V32.692h-1.65c-0.843,0-1.529-0.686-1.529-1.53 v-3.709c0-0.844,0.687-1.53,1.529-1.53h1.638c-0.012-1.132-0.016-2.476,0.014-3.275c-0.001-3.672,3.025-6.263,7.357-6.263h3.71 c0.843,0,1.529,0.686,1.529,1.53v4.245c0,0.409-0.159,0.794-0.449,1.083c-0.288,0.288-0.672,0.447-1.08,0.447 c-0.001,0-0.002,0-0.003,0l-2.118-0.003c-0.985,0-1.118,0.565-1.118,1.117v1.12h3.177c0.435,0,0.851,0.186,1.14,0.51 c0.29,0.324,0.429,0.758,0.381,1.19l-0.412,3.708c-0.085,0.775-0.738,1.361-1.521,1.361H35.12v12.782 C35.12,46.315,34.434,47,33.591,47z M29.291,45h3.829V32.219c0-0.842,0.687-1.526,1.529-1.526h2.814l0.308-2.77h-3.122 c-0.843,0-1.529-0.686-1.529-1.53v-1.59c0-1.894,1.225-3.117,3.119-3.117l1.649,0.002v-3.304h-3.239 c-3.205,0-5.358,1.728-5.358,4.299c-0.025,0.72-0.027,2.02-0.008,3.695c0.005,0.409-0.15,0.796-0.438,1.088 c-0.29,0.294-0.678,0.456-1.092,0.456h-1.642v2.77h1.649c0.844,0,1.53,0.685,1.53,1.526V45z M37.417,31.11 c0,0.001,0,0.001,0,0.002V31.11z"/></g></svg>