<svg xmlns="http://www.w3.org/2000/svg"  viewBox="0 0 64 64" width="64px" height="64px"><path fill="#85cbf8" d="M32 5A27 27 0 1 0 32 59A27 27 0 1 0 32 5Z"/><path fill="#8d6c9f" d="M32,61C16.009,61,3,47.99,3,32S16.009,3,32,3s29,13.01,29,29S47.991,61,32,61z M32,5 C17.112,5,5,17.112,5,32s12.112,27,27,27s27-12.112,27-27S46.888,5,32,5z"/><path fill="#8d6c9f" d="M53.512 41.155c-.118 0-.238-.021-.354-.065-.517-.195-.776-.772-.581-1.289C53.521 37.312 54 34.687 54 32c0-2.252-.339-4.473-1.007-6.602-.166-.527.127-1.089.654-1.254.527-.164 1.088.128 1.254.654C55.63 27.122 56 29.545 56 32c0 2.93-.522 5.793-1.553 8.51C54.296 40.909 53.916 41.155 53.512 41.155zM37.719 56.304c-.45 0-.858-.306-.97-.762L36.273 53.6c-.131-.537.197-1.078.733-1.21.531-.132 1.077.197 1.209.733l.476 1.942c.131.537-.197 1.078-.733 1.21C37.878 56.295 37.798 56.304 37.719 56.304zM42.275 54.692c-.374 0-.733-.211-.904-.571l-.857-1.807c-.237-.499-.024-1.096.475-1.332.5-.236 1.096-.023 1.332.475l.857 1.807c.237.499.024 1.096-.475 1.332C42.564 54.661 42.418 54.692 42.275 54.692zM46.408 52.191c-.304 0-.604-.138-.8-.399l-1.202-1.599c-.332-.441-.243-1.068.198-1.4.442-.33 1.069-.242 1.4.199l1.202 1.599c.332.441.243 1.068-.198 1.4C46.828 52.126 46.617 52.191 46.408 52.191zM49.954 48.914c-.236 0-.473-.083-.663-.252l-1.496-1.327c-.413-.366-.451-.998-.084-1.412.367-.413.998-.451 1.412-.084l1.496 1.327c.413.366.451.998.084 1.412C50.504 48.801 50.23 48.914 49.954 48.914zM52.776 44.997c-.17 0-.342-.043-.5-.135l-1.731-1.002c-.478-.276-.641-.888-.365-1.366.277-.478.888-.644 1.367-.364l1.731 1.002c.478.276.641.888.365 1.366C53.458 44.818 53.122 44.997 52.776 44.997z"/><g><path fill="#8d6c9f" d="M32,56c-5.896,0-11.565-2.158-15.962-6.078c-0.412-0.367-0.448-0.999-0.081-1.411 c0.367-0.413,0.999-0.449,1.412-0.081c4.46,3.976,10.348,5.968,16.379,5.502c0.547-0.046,1.032,0.369,1.075,0.92 c0.043,0.55-0.369,1.031-0.919,1.074C33.27,55.975,32.629,56,32,56z"/></g><g><path fill="#8d6c9f" d="M9.782,38.971c-0.441,0-0.846-0.294-0.965-0.741C8.275,36.209,8,34.113,8,32C8,18.767,18.767,8,32,8 c6.225,0,12.125,2.373,16.615,6.681c0.398,0.383,0.412,1.016,0.029,1.414c-0.382,0.399-1.016,0.41-1.414,0.029 C43.115,12.175,37.706,10,32,10c-12.131,0-22,9.869-22,22c0,1.938,0.252,3.859,0.749,5.712c0.143,0.533-0.173,1.082-0.707,1.225 C9.955,38.96,9.868,38.971,9.782,38.971z"/></g><g><path fill="#faefde" d="M26.713,47c-3.604-0.008-7.095-0.994-10.146-2.856c0.375,0.03,0.758,0.046,1.139,0.046 c2.358,0,4.699-0.595,6.771-1.721l2.042-1.11l-2.21-0.72c-2.016-0.656-3.62-2.231-4.315-4.23l1.577-0.577l-1.415-1.108 c-1.625-1.273-2.575-3.179-2.616-5.238l2.687,1.089l-1.625-2.595c-1.274-2.086-1.333-4.684-0.166-6.821 c3.307,3.973,7.95,6.469,13.093,7.037l1.11,0.122V26.58c0-1.736,0.653-3.391,1.84-4.657c1.302-1.389,3.067-2.153,4.972-2.153 c1.734,0,3.388,0.653,4.654,1.84l0.391,0.366l0.521-0.122c1.283-0.301,2.512-0.779,3.659-1.424 c-0.177,0.489-0.418,0.972-0.713,1.422l-1.763,2.683l3.347-1.358c-0.796,1.125-1.758,2.126-2.858,2.972L46.3,26.448v0.962 c-0.043,4.859-1.836,9.554-5.051,13.21c-3.561,4.059-8.699,6.386-14.097,6.386C27.006,47.006,26.86,47.004,26.713,47z"/><path fill="#8d6c9f" d="M49.49,22.12L48.8,22.4c0.407-0.619,0.723-1.292,0.94-2c0.129-0.469-0.147-0.953-0.616-1.082 c-0.224-0.061-0.462-0.032-0.664,0.082c-1.141,0.678-2.378,1.177-3.67,1.48c-3.148-2.949-8.09-2.788-11.039,0.359 c-1.356,1.448-2.111,3.357-2.111,5.341c0,0.207,0,0.413,0,0.62c-4.91-0.542-9.412-2.987-12.54-6.81 c-0.307-0.376-0.862-0.433-1.238-0.125c-0.081,0.066-0.149,0.145-0.202,0.235c-1.44,2.481-1.405,5.552,0.09,8 c-0.451-0.182-0.964,0.035-1.146,0.486c-0.04,0.1-0.062,0.207-0.064,0.314v0.1c0.016,2.388,1.121,4.637,3,6.11 c-0.438,0.16-0.674,0.634-0.54,1.08c0.772,2.37,2.63,4.228,5,5c-2.391,1.3-5.127,1.827-7.83,1.51 c-0.483-0.053-0.918,0.295-0.971,0.778c-0.036,0.329,0.115,0.65,0.391,0.832c3.308,2.139,7.161,3.281,11.1,3.29 c5.847,0.137,11.453-2.324,15.31-6.72c3.374-3.838,5.255-8.76,5.3-13.87c0-0.16,0-0.31,0-0.47c1.286-0.988,2.4-2.181,3.3-3.53 c0.265-0.408,0.149-0.953-0.259-1.217c-0.245-0.159-0.552-0.186-0.821-0.073L49.49,22.12z M45.87,25.8 c-0.238,0.174-0.373,0.455-0.36,0.75c0,0.28,0,0.57,0,0.86c-0.009,10.405-8.452,18.832-18.857,18.823 c-2.414-0.002-4.805-0.468-7.043-1.373c2.644-0.323,5.151-1.36,7.25-3c0.381-0.302,0.446-0.855,0.144-1.236 c-0.163-0.207-0.411-0.329-0.674-0.334c-2.085-0.036-4.005-1.143-5.08-2.93c0.659-0.008,1.314-0.098,1.95-0.27 c0.468-0.13,0.742-0.616,0.612-1.084c-0.089-0.318-0.348-0.56-0.672-0.626c-2.343-0.481-4.184-2.294-4.7-4.63 c0.674,0.21,1.374,0.328,2.08,0.35c0.393,0.021,0.749-0.232,0.86-0.61c0.12-0.374-0.023-0.782-0.35-1 c-2.261-1.508-3.242-4.336-2.4-6.92c3.648,3.901,8.666,6.235,14,6.51c0.276,0.018,0.544-0.097,0.72-0.31 c0.175-0.211,0.242-0.492,0.18-0.76c-0.75-3.262,1.287-6.514,4.549-7.263c2.094-0.481,4.285,0.182,5.761,1.743 c0.207,0.22,0.513,0.318,0.81,0.26c0.713-0.141,1.415-0.335,2.1-0.58c-0.4,0.438-0.861,0.815-1.37,1.12 c-0.396,0.282-0.488,0.831-0.206,1.227c0.188,0.264,0.505,0.403,0.826,0.363c0.42-0.053,0.837-0.12,1.25-0.2 C46.816,25.084,46.355,25.459,45.87,25.8z"/></g></svg>