<svg xmlns="http://www.w3.org/2000/svg"  viewBox="0 0 64 64" width="64px" height="64px"><path fill="#ed7899" d="M59.921,17.502c-0.561-3.923-3.703-6.968-7.64-7.405l-3.083-0.343 c-11.412-1.268-22.985-1.268-34.396,0l-3.083,0.343c-3.937,0.437-7.079,3.482-7.64,7.405c-1.377,9.639-1.436,19.421-0.178,29.073 l0.239,1.825c0.519,3.979,3.666,7.067,7.654,7.511l3.007,0.334c5.706,0.634,11.452,0.95,17.198,0.95s11.493-0.316,17.198-0.95 l3.007-0.334c3.988-0.444,7.136-3.532,7.654-7.51l0.239-1.827C61.357,36.923,61.298,27.141,59.921,17.502z"/><path fill="#e0678f" d="M8.025,50c-1.762,0-2.686,2.135-1.448,3.388c1.359,1.376,3.178,2.296,5.217,2.523l3.007,0.334 c5.706,0.634,11.452,0.95,17.198,0.95s11.493-0.316,17.198-0.95l3.007-0.334c2.04-0.227,3.858-1.147,5.218-2.523 C58.661,52.135,57.737,50,55.975,50H8.025z"/><path fill="#f283a5" d="M55.975,16.196c1.762,0,2.686-2.135,1.448-3.388c-1.359-1.376-3.178-2.296-5.217-2.523L49.198,9.95 C43.492,9.316,37.746,9,32,9S20.508,9.316,14.802,9.95l-3.007,0.334c-2.04,0.227-3.858,1.147-5.218,2.523 c-1.238,1.253-0.313,3.388,1.448,3.388H55.975z"/><path fill="#faefde" d="M25.471,41.896L25.469,24l16.279,8.975L25.471,41.896z"/><path fill="#8d6c9f" d="M14 14c-.552 0-1 .447-1 1v2c0 .553.448 1 1 1s1-.447 1-1v-2C15 14.447 14.552 14 14 14zM9 14c-.552 0-1 .447-1 1v2c0 .553.448 1 1 1s1-.447 1-1v-2C10 14.447 9.552 14 9 14zM29 18c.552 0 1-.447 1-1v-2c0-.553-.448-1-1-1s-1 .447-1 1v2C28 17.553 28.448 18 29 18zM34 18c.552 0 1-.447 1-1v-2c0-.553-.448-1-1-1s-1 .447-1 1v2C33 17.553 33.448 18 34 18zM39 18c.552 0 1-.447 1-1v-2c0-.553-.448-1-1-1s-1 .447-1 1v2C38 17.553 38.448 18 39 18zM44 14c-.552 0-1 .447-1 1v2c0 .553.448 1 1 1s1-.447 1-1v-2C45 14.447 44.552 14 44 14zM49 14c-.552 0-1 .447-1 1v2c0 .553.448 1 1 1s1-.447 1-1v-2C50 14.447 49.552 14 49 14zM54 14c-.552 0-1 .447-1 1v2c0 .553.448 1 1 1s1-.447 1-1v-2C55 14.447 54.552 14 54 14zM19 14c-.552 0-1 .447-1 1v2c0 .553.448 1 1 1s1-.447 1-1v-2C20 14.447 19.552 14 19 14zM24 18c.552 0 1-.447 1-1v-2c0-.553-.448-1-1-1s-1 .447-1 1v2C23 17.553 23.448 18 24 18zM14 48c-.552 0-1 .447-1 1v2c0 .553.448 1 1 1s1-.447 1-1v-2C15 48.447 14.552 48 14 48zM9 48c-.552 0-1 .447-1 1v2c0 .553.448 1 1 1s1-.447 1-1v-2C10 48.447 9.552 48 9 48zM29 48c-.552 0-1 .447-1 1v2c0 .553.448 1 1 1s1-.447 1-1v-2C30 48.447 29.552 48 29 48zM34 48c-.552 0-1 .447-1 1v2c0 .553.448 1 1 1s1-.447 1-1v-2C35 48.447 34.552 48 34 48zM39 48c-.552 0-1 .447-1 1v2c0 .553.448 1 1 1s1-.447 1-1v-2C40 48.447 39.552 48 39 48zM44 48c-.552 0-1 .447-1 1v2c0 .553.448 1 1 1s1-.447 1-1v-2C45 48.447 44.552 48 44 48zM49 48c-.552 0-1 .447-1 1v2c0 .553.448 1 1 1s1-.447 1-1v-2C50 48.447 49.552 48 49 48zM54 48c-.552 0-1 .447-1 1v2c0 .553.448 1 1 1s1-.447 1-1v-2C55 48.447 54.552 48 54 48zM19 48c-.552 0-1 .447-1 1v2c0 .553.448 1 1 1s1-.447 1-1v-2C20 48.447 19.552 48 19 48zM24 48c-.552 0-1 .447-1 1v2c0 .553.448 1 1 1s1-.447 1-1v-2C25 48.447 24.552 48 24 48z"/><path fill="#8d6c9f" d="M60.864,16.979c-0.58-4.056-3.828-7.203-7.898-7.655l-3.187-0.354 c-11.798-1.311-23.762-1.311-35.559,0l-3.187,0.354c-4.07,0.452-7.318,3.6-7.898,7.655c-1.423,9.965-1.485,20.077-0.184,30.056 l0.247,1.887c0.536,4.113,3.79,7.306,7.913,7.765l3.109,0.346C20.12,57.687,26.06,58.014,32,58.014s11.881-0.327,17.779-0.982 l3.109-0.346c4.123-0.459,7.377-3.651,7.913-7.764l0.247-1.889C62.349,37.056,62.288,26.943,60.864,16.979z M59.064,46.774 l-0.247,1.889c-0.417,3.196-2.946,5.678-6.15,6.034l-3.109,0.346c-11.651,1.294-23.466,1.296-35.117,0l-3.109-0.346 c-3.205-0.356-5.734-2.838-6.15-6.035l-0.247-1.887c-1.278-9.799-1.218-19.729,0.18-29.514c0.451-3.152,2.976-5.6,6.139-5.95 l3.187-0.354C20.268,10.31,26.133,9.986,32,9.986c5.866,0,11.734,0.323,17.559,0.971l3.187,0.354 c3.164,0.351,5.688,2.798,6.139,5.95C60.282,27.047,60.343,36.977,59.064,46.774z"/><path fill="#8d6c9f" d="M44.292,32.978c0-0.364-0.198-0.7-0.517-0.877L25.483,22.015c-0.31-0.172-0.688-0.164-0.991,0.015 C24.187,22.21,24,22.537,24,22.891L24.002,43c0,0.354,0.187,0.681,0.49,0.86c0.157,0.093,0.333,0.14,0.51,0.14 c0.166,0,0.331-0.041,0.48-0.123l18.29-10.023C44.092,33.678,44.292,33.343,44.292,32.978z M26.002,41.312L26,24.584l15.216,8.39 L26.002,41.312z"/></svg>